# xmcd CD database file generated by LOLA_Freedb v0.9beta0
# 
# Track frame offsets:
#      150
#      13507
#      31847
#      51547
#      68840
#      84879
#      101255
#      115520
#      131197
#      146357
#      166872
#      195047
#      217510
#      239052
#      258250
#      283717
# 
# Disc length: 4041 seconds
# 
# Revision: 2 
# Processed by: cddbd v1.5.1PL2 Copyright (c) Steve Scherf et al.
# Submitted via: LOLA_Freedb v0.9beta0
# 
DISCID=cb0fc710
DTITLE=The Three Degrees - When Will I See You Again
DYEAR=1900
DGENRE=
TTITLE0=The Three Degrees - When Will I See You Again
TTITLE1=The Three Degrees - Midnight Train
TTITLE2=The Three Degrees - Dirty Ol' Man
TTITLE3=The Three Degrees - Nigai Namida
TTITLE4=The Three Degrees - T.S.O.P (The Sound Of Philadelphia)
TTITLE5=The Three Degrees - I'm Doing fine Now
TTITLE6=The Three Degrees - I'm Gonna Miss You
TTITLE7=I'll Be Around
TTITLE8=Do Right Woman (Do Right Man)
TTITLE9=Let's Get It On
TTITLE10=Tie U Up
TTITLE11=Win, Place Or Show
TTITLE12=Make It Easy On Yourself
TTITLE13=Lock It Up
TTITLE14=Vital Signs
TTITLE15=A Tender Lie
EXTD=
EXTT0=
EXTT1=
EXTT2=
EXTT3=
EXTT4=
EXTT5=
EXTT6=
EXTT7=
EXTT8=
EXTT9=
EXTT10=
EXTT11=
EXTT12=
EXTT13=
EXTT14=
EXTT15=
PLAYORDER=
